<?xml version="1.0" standalone="no"?>
<!DOCTYPE svg PUBLIC "-//W3C//DTD SVG 20010904//EN"
 "http://www.w3.org/TR/2001/REC-SVG-20010904/DTD/svg10.dtd">
<svg version="1.0" xmlns="http://www.w3.org/2000/svg"
 width="1000.000000pt" height="1000.000000pt" viewBox="0 0 1000.000000 1000.000000"
 preserveAspectRatio="xMidYMid meet">

<g transform="translate(0.000000,1000.000000) scale(0.100000,-0.100000)"
fill="#000000" stroke="none">
<path d="M4840 9889 c-204 -73 -390 -139 -630 -224 -102 -36 -228 -81 -280
-100 -52 -18 -197 -70 -322 -114 -464 -164 -741 -263 -1058 -376 -69 -25 -208
-74 -310 -110 -102 -36 -234 -83 -295 -105 -60 -22 -308 -110 -550 -195 -242
-86 -483 -172 -535 -191 -52 -18 -178 -63 -280 -100 -101 -36 -187 -67 -190
-69 -4 -2 2 -73 12 -157 10 -84 45 -385 78 -668 33 -283 84 -729 114 -990 31
-261 78 -673 106 -915 27 -242 61 -532 75 -645 13 -113 41 -347 60 -520 19
-173 49 -427 65 -565 33 -273 103 -887 150 -1305 17 -146 33 -279 35 -297 5
-28 16 -37 93 -79 87 -47 362 -199 542 -299 52 -29 208 -114 345 -190 138 -76
331 -183 430 -238 99 -54 230 -126 290 -160 61 -33 148 -81 195 -107 47 -26
191 -106 320 -177 459 -253 639 -353 975 -538 187 -103 390 -215 450 -248 61
-34 148 -82 195 -109 l84 -47 56 31 c30 17 98 54 150 83 90 49 547 302 965
533 105 58 233 128 285 157 52 29 203 112 335 185 132 73 283 156 335 185 247
135 903 498 1060 585 196 109 535 296 652 359 67 37 78 47 82 74 3 18 22 172
41 342 86 755 146 1276 170 1475 14 118 43 373 65 565 107 925 154 1331 210
1815 33 289 81 701 105 915 59 508 94 806 104 880 5 33 6 63 3 67 -7 7 -112
45 -412 152 -85 30 -289 102 -452 160 -164 58 -432 153 -595 211 -280 99 -396
141 -703 250 -223 79 -368 131 -815 290 -242 85 -471 167 -510 181 -38 15
-119 43 -180 64 -60 21 -200 71 -310 110 -110 39 -249 89 -310 110 -60 21
-160 56 -220 78 l-111 40 -164 -59z m-650 -1683 c0 -2 -21 -50 -46 -107 -25
-57 -84 -192 -131 -299 -47 -107 -103 -237 -125 -287 l-41 -93 -36 5 c-20 3
-249 25 -509 50 -261 24 -476 46 -480 50 -3 3 147 159 333 345 l340 340 347 0
c192 0 348 -2 348 -4z m300 -561 l0 -565 90 -45 c49 -25 92 -45 95 -45 3 0 5
275 5 610 l0 610 100 0 100 0 0 -1405 0 -1405 -149 0 c-124 0 -156 3 -197 20
-27 11 -148 56 -269 101 -121 44 -332 123 -470 174 -137 51 -367 137 -510 190
-143 53 -381 142 -530 197 -148 55 -275 105 -282 112 -7 6 -32 97 -57 201 -40
171 -111 466 -210 875 -19 79 -33 147 -31 150 2 3 95 -2 207 -12 112 -9 491
-40 843 -68 352 -27 658 -53 680 -56 l40 -5 52 123 c29 68 89 211 134 318 45
107 108 257 140 333 33 76 59 143 59 148 0 5 36 9 80 9 l80 0 0 -565z m790
-45 c0 -335 2 -610 5 -610 3 0 46 20 95 45 l90 45 0 565 0 565 78 0 77 0 57
-138 c31 -75 91 -218 133 -317 42 -99 101 -241 132 -315 31 -74 61 -141 66
-148 8 -9 24 -12 51 -8 23 3 334 28 691 56 358 28 729 57 825 65 274 22 255
22 253 0 -1 -11 -39 -171 -83 -355 -44 -184 -108 -450 -141 -590 -34 -140 -66
-260 -72 -266 -7 -6 -136 -57 -287 -114 -151 -56 -351 -130 -445 -165 -93 -35
-323 -120 -510 -190 -187 -69 -460 -171 -607 -226 l-267 -99 -170 0 -171 0 0
1405 0 1405 100 0 100 0 0 -610z m1525 270 c186 -186 336 -342 333 -345 -3 -4
-233 -28 -510 -54 -366 -35 -506 -45 -514 -37 -7 6 -58 117 -114 246 -57 129
-130 296 -162 370 -33 74 -62 141 -65 148 -4 9 68 12 343 12 l349 0 340 -340z
m-4010 -1975 l260 -95 272 -272 272 -272 216 48 c119 27 218 46 220 44 3 -3
-72 -113 -165 -246 l-170 -242 0 -760 c0 -418 -3 -760 -6 -760 -9 0 -1134 937
-1161 967 l-23 24 0 830 c0 657 3 829 13 829 6 0 129 -43 272 -95z m4655 -739
l0 -834 -585 -489 c-322 -268 -590 -489 -595 -491 -7 -2 -10 271 -10 757 l0
761 -169 242 c-93 134 -168 244 -166 247 2 2 101 -18 220 -45 l216 -48 272
272 272 271 260 95 c143 53 266 95 273 96 9 0 12 -173 12 -834z m-3083 124
l116 -70 498 0 498 0 116 70 c64 39 119 70 123 70 4 0 94 -131 200 -290 l192
-290 -2 -452 -3 -452 -337 -240 -338 -241 0 -97 0 -98 335 240 c185 132 338
240 340 240 3 0 5 -44 5 -97 l0 -98 -336 -240 c-185 -132 -338 -245 -341 -251
-2 -6 -3 -50 -1 -98 l3 -87 270 194 c149 106 300 214 338 241 l67 48 0 -101 0
-100 -340 -243 -340 -243 0 -97 0 -97 334 239 c184 132 337 240 340 240 3 0 6
-78 6 -172 l0 -173 -150 -225 c-145 -218 -157 -232 -318 -393 l-168 -167 -490
0 -490 0 -183 184 c-177 178 -188 191 -327 401 l-144 216 0 165 c0 111 3 164
11 164 6 0 159 -106 339 -235 181 -129 334 -235 340 -235 6 0 10 34 10 89 l0
89 -347 249 -348 248 -3 98 c-1 53 1 97 5 97 4 0 159 -108 343 -240 184 -132
338 -240 343 -240 4 0 7 40 7 90 l0 90 -72 53 c-40 30 -194 140 -343 247 -148
106 -273 198 -277 204 -12 17 -10 186 2 186 6 0 158 -106 339 -235 180 -129
333 -235 339 -235 8 0 12 28 12 89 l0 88 -336 239 c-184 131 -342 245 -350
252 -12 11 -14 85 -14 450 l0 437 198 297 c108 164 201 298 205 298 5 0 61
-31 124 -70z m-979 -1879 l312 -265 0 -370 0 -371 -320 320 -320 320 0 318 c0
175 4 317 8 315 5 -1 149 -122 320 -267z m3512 -49 l0 -317 -320 -320 -320
-320 0 371 0 370 299 252 c164 139 304 259 311 267 7 8 16 15 21 15 5 0 9
-142 9 -318z"/>
</g>
</svg>
